<svg
  className="icon"
  viewBox="0 0 24 24"
  width="24"
  height="24"
>
  <path
    d="M942.6944 132.2752l-168.8832-10.6752v213.3248q-2.1504 224.5376 0 226.6624 2.1504 2.1504 0 0v377.088c0 10.6496 0 0-2.1504 8.5248-4.2752 21.3248-23.5008 36.2752-47.0272 36.2752H361.2672l523.6992 34.1248h6.4c44.9024 0 81.2288-34.1248 85.504-78.9248l47.0272-718.9504c2.1504-44.8-34.176-85.3248-81.2032-87.4496z"
    fill="#DF4BFC"
    p-id="2765"
  ></path>
  <path
    d="M726.784 0H85.504C38.4768 0 0 38.4 0 85.3248v853.3504A85.6576 85.6576 0 0 0 85.504 1024h641.28c47.0272 0 85.504-38.4 85.504-85.3248V85.3248A85.6576 85.6576 0 0 0 726.784 0z m-205.2096 518.4H175.2832c-21.376 0-36.352-17.0752-36.352-36.2752 0-21.3248 17.1008-36.2496 36.352-36.2496h346.2912c21.376 0 36.352 17.0496 36.352 36.2496 0 19.2-17.1264 36.2752-36.352 36.2752zM175.2832 686.9248h247.9616c21.376 0 38.4768 17.0752 38.4768 38.4 0 21.3504-17.1008 38.4-38.4768 38.4H175.2832a38.272 38.272 0 0 1-38.4768-38.4c0-21.3248 17.1008-38.4 38.4768-38.4z"
    fill="#B454FD"
    p-id="2766"
  ></path>
</svg>
