<svg
  viewBox="0 0 1024 1024"
  xmlns="http://www.w3.org/2000/svg"
  width="28"
  height="28"
>
  <path
    d="M1023.910943 511.999898c5.11911 317.794367-194.116663 516.825376-511.91103 511.911029-317.794367 4.914346-516.825376-194.116663-511.91103-511.911029C-4.825463 194.20553 194.205546-4.825478 511.999913 0.088868c317.794367-4.914346 516.825376 194.116663 511.91103 511.91103z"
    fill="#FF5FB7"
    p-id="21456"
  ></path>
  <path
    d="M1022.477592 566.671996C1006.915497 340.40732 852.318366 201.16752 614.382119 204.85328c-254.112635-4.095288-413.624112 155.416189-409.528824 409.528824-3.890524 237.936247 135.554041 392.533378 361.613952 408.095473 268.036615-16.381153 439.629192-187.97373 456.010345-455.805581z"
    fill="#FF55AA"
    p-id="21457"
  ></path>
  <path
    d="M1015.515602 629.944199C985.824762 491.523456 876.480566 407.160519 716.764325 409.617692c-190.635668-3.071466-310.218084 116.51095-307.146618 307.146618-2.457173 159.716241 81.905765 269.060437 220.121743 298.751277 211.112109-34.400421 351.375731-174.664043 385.776152-385.571388z"
    fill="#FF4A9C"
    p-id="21458"
  ></path>
  <path
    d="M997.701098 705.707031C964.734028 646.734881 902.076118 613.153517 819.146531 614.382104c-127.1587-2.047644-206.812056 77.605712-204.764412 204.764412-1.433351 82.929587 32.352777 145.587497 91.120163 178.554567a431.233852 431.233852 0 0 0 292.198816-291.994052z"
    fill="#FF408E"
    p-id="21459"
  ></path>
  <path
    d="M273.654138 828.360914L778.193649 634.858545H245.806178v174.868808a20.476441 20.476441 0 0 0 27.84796 18.633561z"
    fill="#FFFFFF"
    p-id="21460"
  ></path>
  <path
    d="M750.345689 828.360914L245.806178 634.858545V255.634854a61.429324 61.429324 0 0 1 61.429323-61.429324h409.528824a61.429324 61.429324 0 0 1 61.429324 61.429324v552.863912a20.476441 20.476441 0 0 1-27.84796 19.862148z"
    fill="#FFB0E3"
    p-id="21461"
  ></path>
  <path
    d="M368.664825 276.111295m30.714661 0l225.240854 0q30.714662 0 30.714661 30.714662l0 0q0 30.714662-30.714661 30.714662l-225.240854 0q-30.714662 0-30.714661-30.714662l0 0q0-30.714662 30.714661-30.714662Z"
    fill="#FFFFFF"
    p-id="21462"
  ></path>
</svg>
